<svg width="25" height="25" viewBox="0 0 25 25" fill="none" xmlns="http://www.w3.org/2000/svg">
<path d="M19.4444 20.8334H4.16666V5.55564H13.3472L14.7361 4.16675H4.16666C3.7983 4.16675 3.44503 4.31308 3.18457 4.57354C2.9241 4.83401 2.77777 5.18728 2.77777 5.55564V20.8334C2.77777 21.2018 2.9241 21.555 3.18457 21.8155C3.44503 22.076 3.7983 22.2223 4.16666 22.2223H19.4444C19.8128 22.2223 20.1661 22.076 20.4265 21.8155C20.687 21.555 20.8333 21.2018 20.8333 20.8334V10.4167L19.4444 11.8056V20.8334Z" fill="black"/>
<path d="M23.2847 4.05555L20.9444 1.71527C20.8406 1.61113 20.7172 1.5285 20.5813 1.47212C20.4455 1.41574 20.2998 1.38672 20.1528 1.38672C20.0057 1.38672 19.86 1.41574 19.7242 1.47212C19.5883 1.5285 19.465 1.61113 19.3611 1.71527L9.84026 11.2917L9.06943 14.6319C9.03659 14.7939 9.04004 14.961 9.07954 15.1215C9.11903 15.2819 9.19359 15.4316 9.29785 15.5597C9.40211 15.6879 9.53347 15.7913 9.68249 15.8627C9.83152 15.934 9.9945 15.9714 10.1597 15.9722C10.2451 15.9816 10.3313 15.9816 10.4167 15.9722L13.7847 15.2292L23.2847 5.63888C23.3889 5.53502 23.4715 5.41163 23.5279 5.27579C23.5842 5.13994 23.6133 4.9943 23.6133 4.84722C23.6133 4.70013 23.5842 4.5545 23.5279 4.41865C23.4715 4.2828 23.3889 4.15941 23.2847 4.05555V4.05555ZM13.0625 13.9444L10.5208 14.5069L11.1111 11.9861L18.2778 4.77083L20.2361 6.72916L13.0625 13.9444ZM21.0208 5.94444L19.0625 3.98611L20.1389 2.88888L22.1111 4.86111L21.0208 5.94444Z" fill="black"/>
</svg>
