<svg width="25" height="25" viewBox="0 0 25 25" fill="none" xmlns="http://www.w3.org/2000/svg">
<path d="M4.10419 5.2083L2.31252 3.41663C2.17452 3.26853 2.09939 3.07265 2.10297 2.87025C2.10654 2.66785 2.18853 2.47474 2.33167 2.33161C2.47481 2.18847 2.66792 2.10648 2.87031 2.1029C3.07271 2.09933 3.26859 2.17446 3.41669 2.31246L22.6875 21.5833C22.8255 21.7314 22.9007 21.9273 22.8971 22.1297C22.8935 22.3321 22.8115 22.5252 22.6684 22.6683C22.5252 22.8115 22.3321 22.8934 22.1297 22.897C21.9273 22.9006 21.7315 22.8255 21.5834 22.6875L19.1948 20.3L19.1917 20.3323C19.1254 21.0088 18.8206 21.6397 18.3319 22.1122C17.8432 22.5846 17.2024 22.8679 16.524 22.9114L16.3406 22.9166H8.6594C7.97967 22.9166 7.3221 22.6749 6.8042 22.2346C6.28629 21.7944 5.94181 21.1844 5.83231 20.5135L5.80836 20.3323L4.47398 6.7708H3.64586C3.45707 6.77079 3.27467 6.70242 3.13239 6.57833C2.99011 6.45424 2.89757 6.28283 2.8719 6.0958L2.86461 5.98955C2.86461 5.80076 2.93298 5.61836 3.05707 5.47608C3.18116 5.3338 3.35257 5.24126 3.53961 5.21559L3.64586 5.2083H4.10419ZM17.7656 18.8708L15.1042 16.2083V17.7083C15.1041 17.9062 15.0289 18.0968 14.8938 18.2414C14.7587 18.386 14.5737 18.474 14.3762 18.4875C14.1787 18.501 13.9835 18.439 13.8299 18.3141C13.6764 18.1892 13.576 18.0106 13.549 17.8145L13.5417 17.7083V14.6458L11.4584 12.5625V17.7083C11.4583 17.9062 11.3831 18.0968 11.248 18.2414C11.1128 18.386 10.9278 18.474 10.7304 18.4875C10.5329 18.501 10.3376 18.439 10.1841 18.3141C10.0305 18.1892 9.93013 18.0106 9.90315 17.8145L9.89586 17.7083V11L6.08544 7.19059L7.36356 20.1802C7.39279 20.4794 7.52463 20.7592 7.73671 20.9722C7.9488 21.1853 8.22806 21.3184 8.52711 21.3489L8.6594 21.3552H16.3406C16.9656 21.3552 17.4959 20.9125 17.6167 20.3114L17.6375 20.1802L17.7656 18.8718V18.8708Z" fill="black"/>
<path d="M13.5604 10.2458L15.1042 11.7895V10.4166L15.0969 10.3104C15.072 10.1288 14.9842 9.96182 14.8487 9.8385C14.7132 9.71518 14.5387 9.64339 14.3557 9.6357C14.1726 9.62801 13.9927 9.68489 13.8473 9.7964C13.702 9.90792 13.6004 10.067 13.5604 10.2458V10.2458Z" fill="black"/>
<path d="M18.9552 6.77076L18.1615 14.8468L19.5907 16.276L20.525 6.77076H21.3542L21.4604 6.76347C21.6565 6.73649 21.8351 6.63608 21.96 6.48253C22.0849 6.32898 22.1469 6.13374 22.1334 5.93626C22.1199 5.73878 22.032 5.55378 21.8873 5.41865C21.7427 5.28351 21.5521 5.20832 21.3542 5.20826H15.8854L15.8802 5.01659C15.8313 4.13599 15.4407 3.30923 14.7915 2.71226C14.1423 2.11529 13.2858 1.79523 12.4042 1.82021C11.5226 1.84518 10.6855 2.21322 10.0711 2.84598C9.45676 3.47875 9.11358 4.3263 9.11462 5.20826H8.52295L10.0854 6.77076H18.9552V6.77076ZM12.5 3.38534C13.5063 3.38534 14.3229 4.20201 14.3229 5.20826H10.6771L10.6834 5.05826C10.721 4.60232 10.9287 4.1772 11.2652 3.8673C11.6018 3.55739 12.0425 3.38536 12.5 3.38534V3.38534Z" fill="black"/>
</svg>
